<?xml version="1.0" encoding="utf-8"?>
<svg version="1.1" xmlns="http://www.w3.org/2000/svg" xmlns:xlink="http://www.w3.org/1999/xlink" x="0px" y="0px" viewBox="0 0 1000 1000" enable-background="new 0 0 1000 1000" xml:space="preserve">
<g><path d="M569.3,498.4L975.5,94.2c19.2-19.1,19.3-50.1,0.2-69.3c-19.2-19.3-50.1-19.3-69.3-0.2L500,428.9L97.2,24.8C78.1,5.7,47.1,5.6,27.9,24.7C8.7,43.8,8.7,74.9,27.8,94.1l402.7,404L24.5,902c-19.2,19.1-19.3,50.1-0.2,69.3c9.6,9.6,22.1,14.5,34.7,14.5c12.5,0,25-4.7,34.6-14.3l406.2-404l406.5,407.7c9.6,9.6,22.1,14.4,34.7,14.4c12.5,0,25-4.8,34.6-14.3c19.2-19.1,19.2-50.1,0.1-69.3L569.3,498.4L569.3,498.4z"/></g>
</svg>