<?xml version="1.0" encoding="utf-8"?>
<!-- Generator: Adobe Illustrator 19.0.0, SVG Export Plug-In . SVG Version: 6.00 Build 0)  -->
<svg version="1.1" id="Layer_1" xmlns="http://www.w3.org/2000/svg" xmlns:xlink="http://www.w3.org/1999/xlink" x="0px" y="0px"
	 viewBox="0 0 75.6 93.4" style="enable-background:new 0 0 75.6 93.4;" xml:space="preserve">
<path id="XMLID_1_" d="M14.7,90.5L14.7,90.5c-2.3,0-4.2-1.9-4.2-4.2V7.1c0-2.3,1.9-4.2,4.2-4.2h0c2.3,0,4.2,1.9,4.2,4.2v79.2
	C19,88.6,17.1,90.5,14.7,90.5z"/>
<path id="XMLID_3_" d="M37.2,90.5L37.2,90.5c-2.3,0-4.2-1.9-4.2-4.2V7.1c0-2.3,1.9-4.2,4.2-4.2h0c2.3,0,4.2,1.9,4.2,4.2v79.2
	C41.5,88.6,39.6,90.5,37.2,90.5z"/>
<path id="XMLID_4_" d="M59.8,90.5L59.8,90.5c-2.3,0-4.2-1.9-4.2-4.2V7.1c0-2.3,1.9-4.2,4.2-4.2h0c2.3,0,4.2,1.9,4.2,4.2v79.2
	C64,88.6,62.1,90.5,59.8,90.5z"/>
<circle cx="14.7" cy="21.9" r="11.8"/>
<circle cx="37.2" cy="70.1" r="11.8"/>
<circle cx="59.8" cy="41.1" r="11.8"/>
</svg>
