<svg xmlns="http://www.w3.org/2000/svg" xmlns:xlink="http://www.w3.org/1999/xlink" version="1.1" enable-background="new 0 0 26 26" width="26" height="20" style=""><rect id="backgroundrect" width="100%" height="100%" x="0" y="0" fill="none" stroke="none"/>
  
<g class="currentLayer" style=""><title>Layer 1</title><g id="svg_1" class="selected" fill="#990098" fill-opacity="1">
    <path d="M25.7,5.300000000000001 C22.4,2 18,0 13,0 S3.5,2 0.30000000000000004,5.300000000000001 C0.1,5.5 0,5.699999999999999 0,6 c0,0.30000000000000004 0.1,0.5 0.30000000000000004,0.7000000000000001 l1.4,1.4 c0.4,0.4 1,0.4 1.4,0 C5.6,5.6 9.1,4 13,4 s7.4,1.6 9.9,4.1 c0.4,0.4 1,0.4 1.4,0 l1.4,-1.4 C25.9,6.5 26,6.300000000000001 26,6 S25.9,5.4 25.7,5.300000000000001 z" id="svg_2" fill="#990098" fill-opacity="1"/>
    <path d="m13,8 c-2.8,0 -5.2,1.1 -7,2.9 c-0.4,0.4 -0.4,1 0,1.4 l1.4,1.4 c0.4,0.4 1,0.4 1.4,0 c1.1,-1.1 2.6,-1.7000000000000002 4.2,-1.7000000000000002 c1.6,0 3.1,0.7000000000000001 4.2,1.7000000000000002 c0.4,0.4 1,0.4 1.4,0 l1.4,-1.4 c0.4,-0.4 0.4,-1 0,-1.4 c-1.8,-1.8 -4.2,-2.9 -7,-2.9 z" id="svg_3" fill="#990098" fill-opacity="1"/>
    <circle cx="13" cy="18" r="2" id="svg_4" fill="#990098" fill-opacity="1"/>
  </g></g></svg>