<?xml version="1.0" standalone="no"?>
<!DOCTYPE svg PUBLIC "-//W3C//DTD SVG 20010904//EN"
 "http://www.w3.org/TR/2001/REC-SVG-20010904/DTD/svg10.dtd">
<svg version="1.0" xmlns="http://www.w3.org/2000/svg"
 width="510px" height="558px" viewBox="0 0 572.000000 626.000000"
 preserveAspectRatio="xMidYMid meet">

<g transform="translate(0.000000,626.000000) scale(0.100000,-0.100000)"
fill="#FFFFFF" stroke="none">
<path d="M0 5553 l1 -708 36 70 c50 94 157 201 243 244 36 17 103 39 148 49
l82 17 0 413 0 413 26 50 c28 56 116 146 148 152 12 2 -138 5 -331 6 l-353 1
0 -707z"/>
<path d="M880 6244 c41 -27 110 -97 132 -133 20 -32 21 -50 27 -456 3 -233 8
-426 11 -429 3 -2 39 -12 80 -20 205 -43 376 -209 411 -399 6 -36 9 -191 7
-410 -3 -342 -4 -354 -27 -410 -65 -162 -214 -285 -395 -324 l-73 -16 -6 -291
c-4 -160 -7 -931 -7 -1714 l0 -1423 -29 -57 c-27 -53 -61 -93 -121 -141 l-25
-20 960 0 c528 0 953 3 945 6 -34 13 -122 98 -142 137 -26 51 -37 226 -38 612
0 197 -3 264 -12 272 -7 5 -42 17 -78 26 -161 40 -307 155 -372 292 l-33 69
-3 408 -3 408 43 82 c79 152 206 249 370 283 40 8 75 18 78 20 6 7 17 1540 19
2627 1 805 1 818 22 858 22 43 111 135 144 149 11 5 -408 9 -945 9 -899 1
-963 0 -940 -15z"/>
<path d="M2960 6250 c0 -5 5 -10 10 -10 17 0 110 -91 128 -125 21 -39 29 -585
32 -2075 1 -591 5 -1154 9 -1250 l6 -175 25 -3 c58 -7 185 -57 241 -94 71 -48
148 -136 190 -220 l30 -60 -3 -417 -3 -416 -34 -70 c-41 -83 -130 -176 -212
-223 -31 -17 -96 -42 -145 -55 -75 -20 -90 -27 -95 -48 -4 -13 -7 -85 -8 -159
-1 -74 -4 -260 -8 -412 l-6 -277 -46 -52 c-25 -28 -63 -65 -84 -80 l-40 -29
936 0 c669 0 937 3 937 11 0 6 -20 30 -44 54 -25 23 -55 62 -68 86 l-23 44 -6
1200 c-3 660 -7 1201 -8 1202 0 1 -27 7 -58 13 -128 27 -209 71 -304 166 -66
64 -102 126 -124 209 -22 86 -22 724 0 810 47 178 213 330 406 370 40 9 75 18
78 21 3 3 8 432 11 953 l5 948 39 49 c21 27 52 61 68 76 17 14 27 31 24 37 -9
15 -1856 16 -1856 1z"/>
<path d="M5028 6252 c33 -10 119 -88 149 -135 l25 -41 6 -948 5 -948 21 -5
c12 -2 47 -9 78 -15 169 -33 338 -190 394 -365 10 -33 13 185 13 1213 l1 1252
-357 -1 c-197 -1 -348 -4 -335 -7z"/>
<path d="M563 4683 l-53 -4 0 -250 0 -249 254 0 253 0 7 92 c3 50 6 165 6 255
l0 163 -207 -2 c-115 -1 -232 -3 -260 -5z"/>
<path d="M0 2028 l0 -2028 353 1 c193 1 343 4 331 6 -32 6 -120 96 -148 152
l-26 50 0 1716 c0 1364 -3 1716 -12 1719 -7 2 -44 11 -83 20 -100 23 -187 69
-261 139 -70 65 -108 122 -136 202 -17 48 -17 -41 -18 -1977z"/>
<path d="M4700 3385 l0 -255 250 0 250 0 0 255 0 255 -250 0 -250 0 0 -255z"/>
<path d="M5701 2969 c-17 -64 -99 -187 -155 -234 -58 -47 -184 -104 -265 -119
l-66 -12 -6 -1210 -6 -1210 -26 -41 c-30 -47 -116 -125 -149 -135 -13 -3 138
-6 335 -7 l357 -1 0 1510 c0 831 -1 1510 -3 1510 -2 0 -9 -23 -16 -51z"/>
<path d="M2610 1825 l0 -255 250 0 250 0 0 255 0 255 -250 0 -250 0 0 -255z"/>
</g>
</svg>
