<?xml version="1.0" encoding="iso-8859-1"?>
<!-- Generator: Adobe Illustrator 17.1.0, SVG Export Plug-In . SVG Version: 6.00 Build 0)  -->
<!DOCTYPE svg PUBLIC "-//W3C//DTD SVG 1.1//EN" "http://www.w3.org/Graphics/SVG/1.1/DTD/svg11.dtd">
<svg version="1.1" id="Capa_1" xmlns="http://www.w3.org/2000/svg" xmlns:xlink="http://www.w3.org/1999/xlink" x="0px" y="0px"
	 viewBox="0 0 279 279" style="enable-background:new 0 0 279 279;" xml:space="preserve">
<path d="M222.333,66H179.5V39.67C179.5,17.521,161.812,0,139.663,0h-0.66C116.854,0,98.5,17.521,98.5,39.67V66H57.333
	c-4.142,0-7.833,3.358-7.833,7.5v198c0,4.142,3.691,7.5,7.833,7.5h165c4.142,0,7.167-3.358,7.167-7.5v-198
	C229.5,69.358,226.475,66,222.333,66z M113.5,39.67c0-13.879,11.624-24.67,25.503-24.67h0.66c13.879,0,24.837,10.791,24.837,24.67
	V66h-51V39.67z"/>
<g>
</g>
<g>
</g>
<g>
</g>
<g>
</g>
<g>
</g>
<g>
</g>
<g>
</g>
<g>
</g>
<g>
</g>
<g>
</g>
<g>
</g>
<g>
</g>
<g>
</g>
<g>
</g>
<g>
</g>
</svg>
